# xmcd CD database file
#
# Track frame offsets:
#	150
#	24877
#	47003
#	80155
#	102900
#	142964
#	162035
#	180521
#	207748
#	229055
#	246968
#	263379
#	282981
#	300569
#	325073
#	341856
#
# Disc length: 4696 seconds
#
# Revision: 2
# Processed by: cddbd v1.4b41PL1 Copyright (c) Steve Scherf et al.
# Submitted via: Feurio! 1.60 - http://www.feurio.com
#
DISCID=d9125610,de125610
DTITLE=sade - the best of sade (Ina Special)
DYEAR=1900
DGENRE=
TTITLE0=why can't we live together
TTITLE1=king of sorrow
TTITLE2=no ordinary love
TTITLE3=sombody already broke my heart
TTITLE4=smooth operator (extended smooth jazz version)
TTITLE5=angel by my side
TTITLE6=every word
TTITLE7=hang on to your love
TTITLE8=i will be your friend
TTITLE9=it's only love that gets you through
TTITLE10=like a tattoo
TTITLE11=love is stronger than pride
TTITLE12=nothing can come between us
TTITLE13=paradise
TTITLE14=please send me someone to love
TTITLE15=the sweetest gift
EXTD=
EXTT0=
EXTT1=
EXTT2=
EXTT3=
EXTT4=
EXTT5=
EXTT6=
EXTT7=
EXTT8=
EXTT9=
EXTT10=
EXTT11=
EXTT12=
EXTT13=
EXTT14=
EXTT15=
PLAYORDER=
